<svg xmlns="http://www.w3.org/2000/svg" viewBox="0 0 120 120">
  <circle cx="60" cy="60" r="60" fill="#F3E5F5" />
  <!-- Face -->
  <ellipse cx="60" cy="58" rx="21" ry="25" fill="#FFD54F" />
  <!-- Beard -->
  <path d="M39,58 C39,80 50,90 60,90 C70,90 81,80 81,58 C81,72 70,82 60,82 C50,82 39,72 39,58 Z" fill="#78909C" />
  <!-- Hair -->
  <path d="M39,45 Q50,28 65,30 Q75,32 81,45 C83,38 76,26 60,26 C46,26 39,36 39,45 Z" fill="#78909C" />
  <!-- Eyes -->
  <circle cx="52" cy="55" r="2.5" fill="#37474F" />
  <circle cx="68" cy="55" r="2.5" fill="#37474F" />
  <!-- Smile -->
  <path d="M55,66 Q60,70 65,66" stroke="#37474F" stroke-width="2" fill="none" stroke-linecap="round" />
  <!-- Shoulders / Clothes -->
  <path d="M25,110 C25,93 40,86 60,86 C80,86 95,93 95,110 Z" fill="#EF6C00" />
</svg>
